<?xml version="1.0" standalone="no"?>
<!DOCTYPE svg PUBLIC "-//W3C//DTD SVG 20010904//EN"
 "http://www.w3.org/TR/2001/REC-SVG-20010904/DTD/svg10.dtd">
<svg version="1.0" xmlns="http://www.w3.org/2000/svg"
 width="834.000000pt" height="834.000000pt" viewBox="0 0 834.000000 834.000000"
 preserveAspectRatio="xMidYMid meet">
<metadata>
Created by potrace 1.14, written by Peter Selinger 2001-2017
</metadata>
<g transform="translate(0.000000,834.000000) scale(0.100000,-0.100000)"
fill="#000000" stroke="none">
<path d="M4135 8328 c-27 -5 -118 -9 -201 -9 -137 0 -154 -2 -173 -20 -34 -32
-27 -55 22 -74 41 -16 46 -15 83 1 53 24 69 25 144 8 39 -9 79 -12 100 -8 63
13 114 12 150 -3 71 -29 130 -9 130 44 0 19 -11 29 -55 49 -57 26 -99 29 -200
12z"/>
<path d="M4610 8321 c0 -5 -19 -15 -42 -23 -30 -9 -47 -22 -57 -42 -21 -44 -5
-76 53 -106 54 -28 61 -46 16 -42 -44 5 -70 -13 -70 -49 0 -17 4 -38 9 -47 4
-9 11 -34 15 -55 6 -34 5 -38 -11 -35 -10 2 -19 12 -21 23 -7 50 -13 65 -26
65 -7 0 -16 -13 -19 -30 -11 -52 -27 -33 -27 30 0 45 -4 60 -14 60 -8 0 -17
-14 -21 -32 -11 -50 -16 -52 -36 -19 -16 27 -22 30 -39 21 -11 -6 -20 -17 -20
-25 0 -25 -17 -17 -26 13 -4 15 -8 34 -9 43 -3 24 -14 39 -30 39 -16 0 -25
-22 -25 -60 0 -34 -16 -48 -24 -23 -3 10 -15 24 -26 31 -18 11 -22 9 -40 -20
-11 -18 -20 -41 -20 -50 0 -10 -7 -18 -16 -18 -13 0 -15 7 -9 40 6 37 5 41
-22 51 -15 6 -35 17 -44 25 -29 26 -74 34 -105 18 -15 -8 -37 -13 -48 -12 -18
3 -21 -3 -24 -39 -2 -29 -8 -43 -18 -43 -12 0 -19 19 -15 43 2 10 -48 32 -55
24 -4 -4 -7 -16 -8 -28 0 -12 -11 -28 -23 -36 -19 -13 -22 -12 -27 5 -6 19
-45 42 -70 42 -8 0 -17 -11 -20 -25 -4 -17 -13 -25 -27 -25 -19 0 -20 -4 -14
-39 8 -46 -10 -65 -25 -27 -11 30 -28 34 -36 9 -11 -34 -27 -63 -35 -63 -5 0
-4 12 1 26 15 39 12 50 -15 62 -39 18 -65 15 -65 -7 0 -27 -17 -35 -25 -12 -9
29 -33 33 -58 8 -12 -12 -29 -22 -37 -22 -9 0 -16 -11 -18 -27 -5 -42 -28 -34
-47 16 -17 44 -41 64 -56 49 -5 -5 -2 -34 5 -66 7 -31 13 -57 12 -58 0 -1 -22
-3 -47 -5 -38 -3 -49 0 -69 21 -19 21 -22 31 -17 70 6 42 5 45 -19 51 -17 4
-31 1 -45 -12 -12 -11 -38 -18 -68 -20 -53 -2 -150 -22 -166 -34 -5 -4 -27
-13 -48 -18 -38 -11 -39 -11 -24 11 22 34 229 109 292 106 113 -5 131 -2 200
30 39 18 84 43 100 55 47 36 92 56 123 56 37 0 60 25 45 48 -15 25 -51 26
-102 4 -25 -11 -68 -24 -96 -30 -27 -6 -68 -15 -90 -20 -22 -6 -76 -13 -120
-16 -44 -4 -87 -8 -95 -10 -34 -7 -76 -19 -85 -25 -5 -3 -12 -6 -15 -6 -25 -4
-79 -18 -95 -25 -57 -25 -155 -60 -167 -60 -7 0 -37 -18 -67 -40 -29 -22 -63
-40 -75 -41 -67 -3 -83 -6 -103 -17 -13 -7 -30 -26 -38 -42 -10 -19 -23 -30
-36 -30 -28 0 -61 -19 -53 -31 3 -5 0 -17 -7 -25 -10 -13 -16 -10 -43 19 -21
23 -36 32 -46 27 -8 -4 -28 -14 -45 -22 -16 -9 -54 -21 -83 -28 -34 -8 -59
-21 -72 -38 -17 -21 -30 -26 -77 -28 -48 -2 -60 -6 -85 -33 -16 -17 -36 -32
-44 -32 -18 -2 -24 -4 -54 -16 -25 -11 -35 -22 -71 -81 -19 -33 -21 -34 -68
-27 -54 7 -60 3 -67 -47 -2 -17 -14 -43 -27 -57 -13 -14 -39 -51 -58 -81 -50
-82 -75 -96 -128 -74 -51 21 -48 25 -50 -57 -1 -43 -6 -55 -31 -77 -34 -30
-39 -58 -11 -67 29 -9 52 5 125 77 38 37 73 65 77 62 15 -9 -22 -54 -66 -79
-23 -14 -47 -36 -53 -50 -6 -14 -19 -25 -29 -25 -20 0 -83 -41 -83 -54 0 -5 8
-14 17 -21 16 -12 15 -16 -9 -62 -28 -51 -31 -101 -7 -129 12 -14 7 -18 -23
-15 -31 4 -52 -16 -68 -66 -23 -67 -52 -71 -75 -9 -14 35 -15 51 -7 75 13 37
7 42 -59 43 -68 0 -87 -18 -82 -76 3 -36 1 -44 -15 -48 -14 -4 -23 -20 -30
-54 -6 -27 -37 -101 -70 -164 -33 -63 -70 -146 -82 -185 -32 -98 -101 -208
-226 -363 -25 -31 -46 -68 -50 -90 -4 -20 -11 -43 -17 -49 -10 -14 -28 -17
-26 -5 7 45 -14 40 -50 -12 -29 -41 -29 -44 -13 -60 10 -9 24 -45 31 -82 24
-118 25 -111 -40 -264 -14 -34 -19 -67 -18 -140 1 -91 -9 -156 -31 -215 -16
-41 -28 -145 -18 -151 4 -3 17 2 29 10 27 19 46 11 65 -26 19 -36 20 -93 5
-141 -15 -43 -37 -40 -46 6 -15 73 -15 74 -36 48 -21 -26 -24 -63 -9 -108 9
-23 7 -40 -5 -74 -28 -76 -29 -88 -7 -112 13 -14 20 -32 18 -49 -4 -38 8 -55
27 -39 10 7 18 8 21 2 4 -5 -3 -13 -15 -16 -18 -6 -20 -12 -14 -43 4 -21 15
-45 26 -55 19 -18 21 -30 24 -139 1 -63 6 -73 29 -65 23 9 45 59 47 111 3 52
24 60 45 17 16 -32 5 -60 -59 -144 -35 -46 -52 -77 -52 -99 -1 -19 -9 -37 -23
-48 -30 -25 -29 -66 2 -74 13 -3 26 -12 29 -20 5 -12 -2 -14 -31 -12 -35 4
-37 6 -45 47 -7 42 -1 195 9 211 3 4 7 35 9 67 2 42 -1 63 -10 71 -11 9 -15 7
-21 -14 -5 -21 -10 -25 -30 -20 -13 3 -24 2 -25 -2 0 -5 -3 -18 -6 -29 -6 -22
-5 -348 1 -380 2 -11 -1 -23 -6 -26 -15 -9 -18 -200 -4 -234 7 -16 11 -47 8
-68 -2 -21 1 -44 8 -52 7 -8 12 -33 12 -55 -1 -41 6 -48 26 -28 9 9 16 8 30
-6 11 -9 30 -19 42 -21 30 -6 38 -15 49 -53 8 -25 5 -35 -10 -53 -16 -19 -24
-52 -20 -81 0 -4 -6 -23 -14 -42 -17 -40 -20 -146 -5 -146 6 0 10 -18 10 -41
0 -28 4 -39 13 -36 6 2 11 10 9 16 -1 7 2 10 7 7 5 -3 15 -35 22 -70 10 -55
23 -79 82 -158 38 -51 76 -107 83 -125 8 -18 31 -59 52 -92 22 -32 44 -73 51
-89 8 -19 24 -35 42 -41 23 -8 29 -16 29 -40 0 -22 13 -45 45 -81 58 -65 75
-91 81 -126 5 -31 48 -109 64 -119 5 -3 15 3 22 14 11 19 13 18 24 -15 7 -19
10 -43 7 -53 -2 -9 5 -44 16 -76 12 -33 21 -66 21 -75 0 -8 15 -37 34 -63 19
-26 37 -63 40 -83 5 -24 22 -49 57 -81 27 -26 49 -52 49 -59 0 -6 6 -16 13
-22 10 -8 17 -7 29 6 55 58 73 57 69 -5 -2 -14 5 -24 18 -28 22 -7 28 -29 11
-40 -15 -9 -1 -27 16 -21 23 9 16 -8 -16 -36 -16 -14 -30 -33 -30 -41 0 -16
29 -45 62 -61 12 -6 37 -31 56 -56 19 -25 48 -54 66 -65 36 -22 55 -44 56 -63
0 -7 13 -24 29 -38 17 -14 40 -42 53 -62 30 -49 39 -57 135 -103 134 -64 157
-50 70 40 -28 31 -39 44 -22 31 16 -14 31 -28 33 -32 2 -5 8 -8 13 -8 11 0 87
-48 108 -68 8 -8 24 -11 37 -8 14 4 24 2 24 -4 0 -28 235 -185 330 -221 59
-22 70 -32 70 -66 0 -14 8 -24 23 -29 12 -3 29 -12 37 -20 22 -19 154 -71 168
-66 15 5 15 35 0 50 -24 24 5 26 49 2 58 -31 91 -33 125 -9 26 18 27 18 33 -1
4 -11 11 -21 16 -21 5 -1 15 -2 22 -3 6 0 13 -14 15 -30 3 -26 1 -28 -20 -22
-59 17 -114 18 -126 3 -17 -20 2 -34 57 -41 24 -3 51 -12 61 -21 9 -8 34 -15
56 -15 40 -1 50 -4 195 -63 82 -33 88 -34 118 -20 30 15 33 14 69 -10 34 -23
49 -26 172 -31 74 -3 146 -8 160 -11 14 -3 60 -8 102 -10 42 -2 101 -11 130
-20 29 -8 73 -16 98 -16 25 -1 58 -8 74 -16 26 -14 94 -13 171 2 11 2 24 4 30
4 5 1 4 6 -3 13 -7 7 -12 16 -12 20 0 16 23 8 45 -16 26 -28 53 -27 214 3 58
11 124 23 146 26 22 4 48 8 58 11 10 3 31 7 48 9 85 11 117 18 178 40 36 13
107 33 156 45 164 38 209 66 172 108 -32 37 -30 59 13 114 38 48 40 53 24 65
-9 7 -21 14 -26 15 -6 2 -5 14 1 29 15 42 -11 73 -57 65 -20 -3 -42 -1 -49 5
-21 18 -41 3 -45 -33 -3 -29 -6 -33 -30 -30 -17 2 -30 -3 -36 -14 -8 -14 -10
-11 -14 15 -4 30 -3 32 19 26 20 -5 26 0 39 30 8 19 12 46 8 59 -4 18 -1 25
16 29 19 5 22 11 18 41 -2 19 0 33 4 30 4 -2 12 5 18 16 6 11 7 20 3 20 -4 1
16 12 45 26 43 21 52 30 53 52 l1 27 7 -29 c3 -16 11 -31 17 -33 10 -3 44 69
44 95 0 7 11 18 25 24 21 9 25 18 25 53 0 28 -6 47 -19 59 -13 12 -18 28 -16
59 4 72 4 74 19 47 8 -16 9 -29 4 -37 -11 -14 -1 -53 13 -53 5 0 23 21 39 47
17 26 30 41 30 35 0 -7 -12 -30 -26 -52 -28 -42 -29 -67 -1 -84 14 -9 22 -5
47 21 19 20 36 30 48 26 13 -3 22 4 31 23 9 21 15 24 24 15 9 -9 8 -14 -3 -22
-13 -8 -13 -11 2 -23 10 -7 25 -29 33 -50 18 -42 45 -50 37 -11 -3 17 0 25 9
25 8 0 4 6 -8 15 -14 10 -19 22 -16 35 4 16 2 19 -11 14 -19 -7 -20 -5 -16
119 1 20 7 27 23 28 30 2 28 2 65 -6 28 -6 32 -4 32 15 0 36 18 57 55 64 20 4
38 13 41 21 8 20 -23 97 -52 128 -21 23 -23 29 -12 47 10 17 20 20 45 15 26
-5 35 -1 52 21 12 15 21 22 21 15 0 -6 15 -11 35 -11 30 0 55 -19 55 -44 0 -2
-36 -3 -80 -2 -85 3 -113 -12 -62 -33 15 -6 37 -27 50 -47 12 -19 33 -39 45
-43 26 -10 57 3 57 24 0 8 12 22 28 32 15 10 29 20 32 23 3 4 13 9 23 13 9 3
17 13 17 21 0 12 7 14 31 9 20 -4 34 -1 39 7 13 21 -5 64 -33 78 -22 11 -25
17 -17 31 14 26 165 25 184 -1 15 -21 45 -24 47 -5 2 19 2 20 -4 57 l-6 35 14
-32 c18 -40 33 -49 51 -31 11 10 12 21 4 48 -12 39 3 122 24 139 18 15 54 16
102 2 56 -15 76 -7 63 26 -8 21 -6 24 8 21 10 -2 17 -11 15 -20 -1 -10 4 -33
12 -52 19 -44 106 -90 141 -74 29 13 79 -12 99 -50 15 -29 29 -165 16 -157 -4
2 -10 28 -12 56 -5 53 -26 89 -72 123 l-28 21 -21 -26 c-12 -15 -35 -29 -50
-33 -19 -5 -33 -17 -42 -39 -12 -28 -11 -36 3 -60 19 -31 62 -61 105 -71 26
-6 27 -8 23 -59 -4 -50 -5 -52 -33 -50 -32 3 -54 -11 -72 -45 -13 -25 -6 -82
10 -82 5 0 22 -9 37 -20 21 -15 36 -18 65 -13 33 5 38 9 33 27 -7 29 7 49 30
42 48 -14 71 -13 94 4 20 15 22 21 11 34 -21 25 -4 143 22 161 26 18 69 19 85
3 12 -12 13 -10 16 14 0 6 10 12 21 14 11 2 32 17 48 34 44 49 31 95 -16 53
-18 -17 -19 -17 -33 2 -25 34 -9 84 19 56 6 -6 23 -11 37 -11 14 0 36 -7 49
-17 13 -9 39 -18 57 -20 28 -3 39 3 73 38 46 46 53 82 19 100 -18 10 -24 8
-40 -11 -10 -13 -16 -31 -13 -41 7 -20 -10 -36 -17 -16 -8 21 0 109 11 120 7
7 17 5 31 -8 20 -18 24 -15 21 15 -1 8 10 20 24 27 22 10 28 9 43 -7 10 -10
29 -21 44 -24 36 -6 100 11 115 32 20 25 16 90 -8 120 l-21 27 37 3 c20 2 42
-2 50 -8 35 -29 126 47 178 151 18 36 44 69 59 78 28 17 94 108 100 138 2 11
14 19 31 21 21 3 27 8 23 19 -4 10 18 38 69 85 41 39 75 76 75 83 0 20 50 104
68 114 9 5 21 31 28 58 6 26 23 81 38 120 14 40 26 90 26 111 0 20 8 67 18
102 21 76 22 215 2 276 -12 41 -12 43 20 83 28 35 32 46 27 81 -3 23 -13 50
-23 61 -30 33 -20 78 26 121 36 33 40 42 39 80 -1 24 6 70 15 103 13 50 14 79
6 174 -6 62 -10 135 -9 161 1 26 -1 52 -5 58 -4 7 -9 31 -11 54 -2 24 -8 75
-11 113 -4 39 -8 85 -8 104 -1 19 -6 36 -12 38 -14 5 -10 131 5 146 16 16 14
42 -5 58 -12 10 -14 25 -8 76 6 59 5 65 -22 100 -16 21 -34 62 -41 93 -6 30
-18 74 -27 96 -8 23 -17 68 -20 99 -3 43 -11 64 -29 84 -20 20 -26 41 -32 96
-10 107 -14 124 -40 172 -14 24 -25 51 -25 59 0 8 -7 29 -16 46 l-16 32 -13
-24 c-14 -27 -11 -59 10 -105 25 -54 56 -138 52 -141 -4 -5 -67 118 -67 132 0
5 -11 25 -24 45 -13 19 -29 50 -34 69 -6 19 -19 58 -30 85 -11 28 -18 66 -17
85 2 19 -1 42 -5 51 -5 9 -11 27 -13 40 -3 14 -19 46 -37 72 -17 26 -41 71
-53 100 -12 29 -38 72 -57 96 -19 23 -35 50 -35 60 -1 10 -21 41 -45 68 -25
27 -55 71 -67 96 -13 26 -33 68 -45 94 -13 26 -47 72 -76 103 -29 30 -71 85
-94 122 -22 37 -62 89 -90 115 -27 26 -57 62 -65 78 -9 17 -55 68 -102 113
-47 46 -115 123 -151 170 -36 48 -84 100 -108 117 -24 16 -80 62 -125 100
-155 133 -208 168 -289 194 -21 7 -58 29 -83 50 -27 23 -72 45 -115 59 -38 12
-90 35 -116 51 l-47 29 -49 -18 c-28 -10 -65 -15 -84 -13 -34 5 -43 -4 -24
-23 5 -5 12 -28 14 -49 3 -22 6 -49 8 -60 3 -18 -3 -20 -62 -20 -36 -1 -71 -4
-78 -9 -17 -11 -35 39 -22 64 15 27 12 67 -4 73 -16 6 -30 -8 -40 -39 -13 -42
-77 -55 -140 -29 -35 15 -36 15 -42 -11 -5 -21 -11 -24 -28 -19 -11 4 -29 7
-38 7 -9 -1 -20 8 -23 18 -9 29 -54 68 -93 81 -21 6 -54 23 -74 36 l-38 26 21
34 c17 27 20 44 16 78 -6 39 -3 46 19 64 14 11 38 22 53 26 33 7 58 50 41 70
-23 28 -52 25 -87 -10 -18 -18 -33 -42 -33 -53 0 -12 -4 -23 -8 -26 -17 -10
-71 27 -81 55 -8 23 -16 29 -38 29 -27 0 -28 -2 -28 -53 0 -60 10 -81 35 -74
16 4 17 1 8 -24 -12 -34 -48 -41 -48 -9 0 11 -5 20 -11 20 -7 0 -9 11 -6 30 8
37 0 42 -40 25 -33 -14 -73 -67 -73 -97 0 -9 -4 -19 -8 -22 -5 -3 -8 14 -8 37
1 32 -3 42 -16 45 -11 2 -21 -5 -27 -20 -5 -13 -18 -32 -30 -42 -11 -11 -21
-27 -21 -38 0 -23 -42 -25 -64 -3 -20 20 -36 79 -36 131 0 22 -3 43 -6 47 -10
9 -34 -4 -34 -19 0 -8 -4 -14 -8 -14 -5 0 -8 17 -7 38 0 34 4 39 49 62 58 30
71 48 62 83 -8 34 -39 62 -98 93 -49 25 -78 31 -78 15z m77 -313 c0 -7 3 -32
7 -55 9 -52 -9 -65 -48 -36 -23 17 -47 51 -27 38 18 -10 40 7 46 36 7 29 22
40 22 17z m368 -172 c-13 -19 -21 -24 -30 -16 -15 13 -8 59 14 84 15 17 16 17
25 -12 6 -22 4 -36 -9 -56z m-2488 28 c-3 -3 -12 -4 -19 -1 -8 3 -5 6 6 6 11
1 17 -2 13 -5z m-57 -19 c-7 -8 -20 -15 -29 -15 -13 1 -13 3 3 15 26 19 42 19
26 0z m-363 -118 c4 -64 -4 -77 -47 -77 -30 0 -40 4 -45 20 -8 26 -37 26 -60
0 -17 -19 -19 -19 -46 -3 -16 10 -29 22 -29 27 0 5 3 7 6 4 7 -8 80 15 164 50
44 19 55 14 57 -21z m3466 -604 c62 -38 118 -71 127 -75 43 -20 185 -115 194
-131 8 -14 8 -21 -4 -30 -8 -7 -16 -21 -18 -31 -4 -22 -58 -123 -80 -148 -20
-24 -47 -23 -73 3 -24 24 -20 42 22 112 l29 47 -47 30 c-26 17 -50 27 -54 23
-12 -15 -189 -314 -189 -321 0 -4 23 -22 51 -40 27 -18 53 -40 56 -48 8 -22
-30 -69 -55 -68 -27 2 -329 183 -337 202 -8 21 17 64 42 73 15 6 34 0 68 -22
26 -17 51 -29 56 -27 6 2 152 240 190 310 8 14 2 22 -31 43 -22 14 -44 25 -49
25 -6 0 -25 -25 -43 -55 -37 -62 -63 -75 -101 -50 -31 20 -29 40 15 109 67
107 89 136 105 136 8 0 65 -30 126 -67z m-2232 -33 c22 -12 42 -27 46 -35 3
-8 9 -12 14 -9 21 12 28 -8 14 -36 -8 -16 -15 -39 -15 -52 0 -13 -13 -51 -30
-85 -33 -71 -35 -70 67 -49 37 8 99 17 136 21 37 3 78 8 90 11 12 2 85 6 162
9 159 5 273 25 292 51 7 10 13 13 13 6 0 -7 13 -10 38 -6 219 30 224 31 237
17 18 -17 25 -16 25 3 0 30 23 8 35 -34 7 -23 11 -42 9 -42 -3 0 0 -8 5 -18 5
-9 12 -41 15 -71 3 -29 8 -56 10 -60 3 -4 7 -41 11 -82 3 -40 8 -90 11 -109 3
-19 8 -48 10 -63 16 -128 24 -168 34 -182 4 -5 7 -17 8 -25 0 -8 10 -64 22
-123 20 -96 22 -114 11 -163 -7 -30 -19 -58 -26 -61 -10 -3 -12 -14 -8 -34 5
-24 1 -30 -21 -39 -14 -5 -26 -14 -26 -19 0 -6 -27 -22 -60 -38 -33 -15 -60
-31 -60 -35 0 -4 -7 -5 -15 -2 -8 3 -29 1 -47 -5 -18 -6 -46 -12 -63 -13 -16
-1 -35 -5 -40 -9 -7 -5 -10 11 -9 44 1 29 -3 55 -9 59 -7 4 -7 11 2 22 8 9 10
16 5 16 -5 1 2 10 15 21 18 15 32 18 57 13 22 -4 34 -2 34 5 0 6 6 11 13 11 7
0 29 11 48 25 29 22 35 33 39 75 5 40 2 51 -11 55 -8 3 -16 11 -16 18 -10 152
-15 218 -19 247 -3 19 -6 58 -8 86 -2 28 -6 56 -10 62 -3 6 -2 13 3 16 5 4 5
21 0 43 -6 21 -11 61 -14 90 -2 29 -8 60 -14 70 -7 13 -6 22 5 34 13 15 9 16
-48 15 -37 -1 -63 -7 -66 -14 -2 -8 -9 -9 -21 -2 -12 6 -32 5 -56 -1 -21 -6
-50 -8 -65 -6 -17 4 -37 -1 -56 -14 -37 -24 -47 -24 -39 1 8 25 -10 27 -24 3
-5 -10 -12 -16 -15 -14 -6 3 -92 -6 -136 -14 -8 -1 -35 -6 -60 -11 -25 -4 -47
-8 -50 -9 -22 -5 -86 -19 -90 -20 -25 -8 -87 -18 -95 -16 -5 1 -38 -3 -73 -9
-35 -6 -95 -13 -134 -16 -83 -6 -144 -28 -151 -54 -4 -16 -2 -17 21 -9 56 21
150 -14 152 -58 0 -8 15 -8 58 2 31 7 91 16 132 19 41 4 92 10 113 15 20 5 37
5 37 1 0 -11 64 -4 89 9 11 6 59 13 108 15 48 3 113 7 144 11 l56 7 11 -58 c6
-33 14 -79 16 -104 12 -107 29 -216 37 -232 5 -9 9 -38 10 -65 1 -26 8 -63 15
-82 8 -18 14 -48 14 -66 l0 -33 -62 -6 c-35 -3 -99 -8 -143 -12 -113 -9 -125
-10 -175 -19 -40 -8 -71 -8 -135 -3 -11 0 -38 -2 -60 -6 -89 -16 -185 -22
-196 -11 -14 13 -3 -88 18 -170 8 -33 16 -75 18 -93 2 -17 10 -44 17 -60 13
-25 17 -27 83 -28 39 0 82 3 97 7 16 4 30 3 34 -3 4 -5 17 -7 33 -2 14 4 62 8
106 10 71 3 160 11 160 14 0 1 7 3 15 5 8 2 38 12 65 23 28 11 63 18 80 15 56
-9 107 -4 155 14 14 6 47 11 73 12 27 1 58 6 69 12 11 6 30 8 43 5 14 -4 29 0
38 8 8 8 24 12 35 9 17 -4 23 1 28 22 4 15 12 24 19 21 7 -2 40 1 73 8 117 24
136 9 94 -76 -54 -112 -129 -164 -252 -174 -19 -1 -55 -8 -80 -14 -58 -15
-171 -37 -234 -45 -27 -4 -58 -9 -70 -11 -12 -2 -41 -6 -66 -9 -25 -3 -63 -9
-85 -12 -72 -11 -88 -12 -218 -17 -70 -3 -165 -13 -210 -22 -45 -9 -98 -18
-117 -20 -19 -2 -50 -6 -68 -9 -19 -4 -39 -2 -46 4 -14 12 -32 70 -40 131 -3
19 -12 78 -21 130 -9 52 -18 119 -20 148 -2 30 -13 78 -25 108 -20 55 -37 147
-45 239 -2 28 -6 61 -10 75 -3 14 -8 39 -10 55 -3 17 -7 41 -9 55 -5 26 -14
94 -20 167 -2 23 -7 47 -11 53 -6 10 -51 -24 -131 -100 -12 -11 -35 -20 -52
-20 -26 0 -35 7 -55 41 -33 55 -27 94 21 134 58 48 88 82 117 133 15 26 36 56
45 67 10 11 28 39 40 62 12 23 28 47 36 54 8 6 14 18 14 25 0 8 6 14 14 14 8
0 17 12 21 27 3 15 15 39 26 55 11 15 17 33 14 38 -4 6 -4 19 0 28 4 9 9 28
11 41 2 19 46 69 62 71 1 0 21 -9 43 -20z m-1174 -326 c64 -31 143 -111 180
-183 23 -47 28 -68 27 -131 0 -89 -17 -131 -77 -191 -46 -46 -96 -74 -148 -84
-32 -6 -36 -4 -51 27 l-17 33 0 -33 c-1 -32 -2 -33 -33 -27 -57 11 -92 27
-138 64 -59 47 -83 75 -117 136 -25 44 -28 60 -28 135 0 96 17 138 79 201 86
87 209 107 323 53z m4147 -213 c51 -25 119 -91 140 -136 73 -154 -7 -341 -183
-428 -55 -27 -75 -31 -137 -31 -78 1 -117 17 -127 52 -3 14 1 22 14 25 14 4
19 14 19 42 0 31 2 35 14 26 7 -6 31 -13 52 -15 108 -11 266 146 249 246 -13
70 -73 118 -143 112 -67 -5 -178 -92 -212 -166 -12 -27 -20 -34 -27 -27 -8 8
-11 -13 -10 -71 l2 -83 -34 -1 c-48 -1 -66 36 -66 139 0 68 4 89 28 138 30 61
42 69 52 37 7 -22 30 -27 41 -9 3 6 6 30 6 53 -1 36 3 44 34 65 86 59 204 72
288 32z m-4814 -391 c41 -11 80 -28 87 -37 9 -12 16 -13 25 -5 9 7 38 3 103
-14 50 -13 99 -26 110 -29 11 -2 34 -8 51 -13 26 -8 34 -7 48 9 20 24 37 24
69 -1 34 -27 30 -43 -40 -145 -62 -90 -82 -104 -119 -84 -32 17 -39 45 -20 75
16 23 16 25 -9 34 -15 6 -29 10 -33 10 -4 0 -35 -41 -69 -92 -62 -91 -62 -92
-46 -119 l17 -28 24 24 c27 27 49 31 73 12 36 -27 31 -50 -28 -137 -67 -98
-95 -111 -132 -64 -19 24 -20 30 -8 48 13 18 10 26 -27 78 -143 200 -149 210
-136 218 9 5 11 27 8 73 l-4 65 57 -78 c31 -43 62 -80 67 -84 6 -3 29 21 51
54 22 32 37 61 33 63 -4 2 -56 17 -115 33 -99 26 -110 32 -129 62 -11 18 -22
32 -23 30 -8 -8 -11 -106 -4 -125 10 -27 -4 -38 -42 -35 -19 2 -34 -6 -47 -23
-25 -32 -40 -32 -48 0 -6 26 -3 33 99 179 29 42 54 63 77 65 3 0 39 -8 80 -19z
m5255 -303 c116 -31 205 -150 207 -277 1 -63 -30 -137 -76 -182 -83 -81 -115
-102 -196 -123 -180 -47 -360 84 -360 263 0 22 5 44 10 47 6 3 10 23 10 44 0
79 96 176 220 221 59 21 122 24 185 7z m-5528 -314 c33 -15 58 -45 64 -77 4
-16 7 -15 34 8 17 14 45 29 63 32 46 9 108 -11 115 -36 3 -12 14 -20 26 -20
12 0 26 -11 35 -27 25 -51 28 -89 10 -152 -16 -58 -18 -60 -43 -54 -14 3 -27
6 -27 7 -1 1 -16 31 -33 68 -24 51 -37 69 -56 74 -20 5 -23 9 -14 20 13 16 6
51 -16 79 -15 19 -16 18 -13 -17 3 -30 1 -38 -13 -38 -24 0 -39 -22 -32 -48 3
-12 0 -28 -6 -36 -9 -11 -61 -132 -61 -142 0 -1 31 -14 69 -29 l69 -26 6 -49
c4 -28 11 -50 16 -50 6 0 10 -8 10 -18 0 -10 7 -27 15 -38 20 -26 19 -33 -7
-43 -15 -6 -33 -4 -52 6 -23 12 -27 20 -24 43 4 24 0 31 -21 39 -14 5 -96 34
-183 65 l-156 55 -15 -22 c-25 -38 -97 -19 -97 27 0 11 25 89 56 172 39 108
66 164 90 193 51 59 114 71 191 34z m3245 -223 c26 -16 52 -30 57 -30 5 0 23
-11 39 -25 17 -14 34 -24 39 -23 4 1 40 -8 80 -20 39 -12 81 -22 93 -22 12 0
40 -10 62 -22 38 -22 39 -24 35 -66 -6 -67 -39 -78 -117 -40 -25 12 -56 27
-70 33 -14 7 -56 22 -95 35 -94 30 -187 69 -204 86 -11 10 -12 19 -3 41 6 15
13 40 16 56 4 15 9 27 13 27 3 0 28 -13 55 -30z m173 -40 c-3 -5 -10 -10 -16
-10 -5 0 -9 5 -9 10 0 6 7 10 16 10 8 0 12 -4 9 -10z m-3185 -130 c6 -22 15
-40 20 -40 6 0 9 3 9 8 -1 4 -1 16 0 27 1 15 4 16 13 7 17 -17 28 -15 29 6 0
9 3 12 5 7 2 -6 -7 -38 -20 -70 -14 -33 -26 -55 -26 -50 0 6 -15 26 -32 45
-17 19 -28 29 -24 23 4 -7 3 -13 -2 -13 -18 0 -22 31 -7 61 9 16 17 29 20 29
2 0 9 -18 15 -40z m2065 -40 c-9 -39 9 -39 25 0 11 26 14 28 24 14 7 -9 20
-14 30 -12 27 5 31 -17 7 -41 -12 -12 -21 -24 -21 -27 0 -4 -16 -22 -35 -41
-19 -18 -43 -53 -53 -77 -29 -64 -33 -64 -115 -20 -36 20 -65 25 -72 13 -10
-15 -25 -10 -25 9 0 27 150 178 183 184 16 3 27 1 28 -6 0 -6 4 -1 9 12 13 32
23 27 15 -8z m3508 -61 c-6 -20 -3 -21 38 -14 24 4 51 14 61 22 23 20 26 11
49 -124 11 -65 22 -129 24 -143 3 -14 8 -45 11 -70 3 -25 8 -48 10 -51 2 -3 6
-33 10 -67 l6 -61 -38 -10 c-65 -17 -178 -36 -199 -33 -46 6 -59 62 -20 88 24
16 27 16 40 -2 12 -16 14 -16 9 -2 -6 17 8 24 62 32 10 2 19 10 18 19 -5 104
1 101 -133 76 l-112 -20 -22 28 -22 27 -5 -29 c-4 -25 -12 -31 -50 -40 -48
-12 -47 -11 -36 -82 3 -18 1 -44 -4 -58 -8 -21 -16 -25 -49 -25 -48 0 -52 9
-67 125 -4 28 -8 53 -10 56 -2 4 -11 53 -19 109 -17 111 -14 123 32 135 35 8
60 -17 68 -68 12 -78 8 -75 77 -61 34 7 65 11 70 8 4 -3 13 -23 19 -44 13 -44
34 -55 27 -15 -5 26 5 34 18 14 11 -19 23 12 14 37 -8 20 -5 22 53 33 128 24
117 18 111 59 -10 69 -11 70 -57 64 -91 -11 -110 -8 -123 17 -25 50 16 83 111
89 29 2 33 0 28 -19z m-2713 -13 c0 -14 5 -28 12 -32 8 -5 9 2 5 25 l-7 31 33
-16 c44 -23 94 -62 101 -79 3 -9 0 -12 -8 -9 -7 3 -38 -14 -70 -38 -41 -30
-56 -47 -53 -60 3 -10 1 -16 -4 -13 -10 7 -49 -12 -49 -23 2 -21 128 -62 210
-67 35 -3 75 -15 117 -37 12 -6 33 -8 48 -6 14 3 28 1 31 -4 3 -5 20 -8 37 -8
135 3 186 -1 206 -18 42 -36 20 -141 -38 -175 l-31 -18 6 -77 c4 -42 13 -113
21 -157 8 -44 17 -102 20 -130 2 -27 10 -67 17 -88 16 -47 10 -85 -13 -86 -74
-1 -333 -21 -341 -26 -5 -3 -92 -13 -180 -20 -19 -2 -48 -6 -64 -10 -26 -5
-65 -10 -166 -19 -19 -2 -57 -6 -85 -10 -45 -6 -105 -12 -205 -21 -19 -2 -35
-4 -35 -5 0 -1 -20 -4 -44 -6 -46 -4 -82 -27 -76 -47 2 -7 6 -32 9 -57 2 -25
9 -57 14 -71 6 -14 7 -31 2 -39 -8 -12 1 -25 48 -74 12 -13 22 -31 22 -40 0
-9 3 -15 8 -15 23 4 43 -4 77 -31 21 -17 50 -30 66 -30 15 0 29 -5 31 -12 3
-8 11 -9 24 -3 10 5 45 10 77 11 70 3 190 12 197 15 3 1 10 2 15 3 12 3 42 14
70 27 11 5 34 9 50 8 92 -3 159 2 171 12 8 6 42 12 77 14 35 1 74 8 86 15 15
8 27 8 33 2 14 -14 48 -3 48 15 0 13 3 13 16 2 14 -11 18 -10 30 6 8 10 14 22
14 26 0 3 20 7 45 7 25 1 50 4 56 7 23 15 63 15 85 0 l24 -16 -35 -65 c-65
-121 -118 -153 -270 -169 -16 -1 -52 -8 -80 -15 -57 -13 -91 -20 -120 -24 -39
-6 -121 -17 -185 -26 -188 -27 -272 -35 -360 -33 -137 2 -190 6 -195 14 -3 4
-30 15 -59 23 -65 19 -148 98 -195 185 -27 52 -76 201 -65 201 2 0 -2 13 -10
28 -18 35 -44 164 -50 252 -3 36 -10 90 -15 120 -6 30 -13 65 -16 78 -2 13 -5
45 -6 70 -2 73 -17 120 -39 127 -11 4 -20 14 -20 23 0 9 -8 40 -18 67 -22 59
-19 81 11 92 30 10 37 10 75 2 36 -8 50 4 32 26 -10 12 -2 19 47 41 169 76
230 107 274 139 27 19 52 35 55 35 8 0 33 32 34 42 0 4 -14 15 -30 23 -17 9
-36 27 -42 40 -7 15 -20 25 -32 25 -12 0 -32 7 -44 16 -18 12 -20 19 -12 35 6
10 20 19 30 19 11 0 20 6 20 13 1 17 40 -34 40 -53 0 -10 3 -11 11 -3 8 8 8
17 0 32 -17 30 5 27 25 -4 9 -14 14 -34 11 -45 -7 -29 11 -36 22 -8 7 17 10
19 10 6 1 -19 21 -26 21 -7 0 19 -21 50 -31 44 -5 -4 -14 6 -19 20 -13 35 -13
42 2 27 17 -17 28 -15 29 6 0 13 3 11 9 -6 8 -19 13 -21 30 -12 25 13 81 -8
103 -40 l16 -23 58 33 c32 18 65 39 73 46 92 82 120 94 120 50z m2409 -885
c19 -19 21 -53 6 -118 -4 -17 -1 -23 12 -24 10 -1 27 -3 38 -4 11 -2 47 -6 80
-10 33 -4 67 -9 75 -10 8 -2 44 -6 80 -10 36 -4 66 -8 68 -9 4 -5 5 -81 0
-101 -4 -16 -13 -20 -49 -19 -42 1 -123 9 -179 18 -14 3 -51 7 -82 11 l-57 6
-6 -38 c-12 -68 -26 -103 -43 -104 -45 -3 -72 14 -74 47 -1 17 5 75 17 169 2
17 7 53 10 80 14 118 22 135 61 135 13 0 33 -9 43 -19z m-5857 -58 c10 -9 18
-22 18 -29 0 -7 21 -20 48 -30 68 -25 75 -34 67 -84 -7 -39 -9 -42 -34 -37
-14 3 -34 9 -43 12 -12 5 -18 2 -18 -8 0 -20 -23 -38 -59 -43 -25 -4 -32 0
-46 25 -8 17 -15 33 -14 36 0 3 -2 32 -6 64 -10 86 -1 105 54 110 8 0 23 -6
33 -16z m506 -3 c18 -22 19 -34 2 -36 -5 -1 -14 -2 -20 -3 -5 0 -10 -13 -10
-27 0 -23 4 -26 25 -22 22 5 25 1 30 -31 4 -20 10 -54 14 -76 4 -22 7 -69 6
-105 0 -61 -1 -65 -28 -74 -39 -14 -59 1 -73 57 -7 26 -9 47 -5 47 3 1 -6 8
-21 16 -16 8 -28 20 -28 26 0 6 -3 8 -7 4 -5 -4 -8 -13 -8 -19 0 -6 -13 -16
-30 -21 -16 -6 -85 -50 -152 -99 -97 -70 -122 -94 -125 -115 -5 -46 -76 -63
-97 -23 -5 9 -12 34 -15 56 -4 22 -9 57 -13 77 -8 52 3 85 30 92 33 8 65 -3
73 -26 4 -15 9 -17 19 -8 8 7 18 9 24 6 5 -4 12 2 14 11 3 10 5 1 6 -19 1 -35
21 -56 21 -23 0 9 7 18 16 22 11 4 13 13 9 33 -5 23 -1 31 27 48 l32 21 -27 6
c-16 4 -34 20 -42 36 -14 26 -14 29 5 39 11 6 18 15 15 21 -9 13 2 11 66 -11
32 -12 70 -19 86 -16 15 2 43 5 61 5 l34 1 -6 59 c-6 54 -4 61 16 75 30 22 55
20 76 -4z m5854 -3 c4 -6 8 -16 8 -22 0 -5 -4 -4 -9 3 -14 23 -46 10 -46 -18
0 -19 4 -24 20 -22 11 2 24 9 28 15 7 11 3 -52 -8 -123 -2 -14 -6 -47 -9 -75
-13 -119 -19 -144 -34 -157 -9 -8 -23 -13 -29 -12 -7 1 -20 2 -28 3 -24 2 -30
30 -10 45 15 10 16 16 6 35 -7 12 -16 19 -21 16 -10 -6 -5 16 12 51 7 15 7 28
-1 42 -8 15 -7 23 5 33 9 7 12 19 8 28 -8 18 -7 54 2 91 3 14 7 32 8 42 4 33
28 50 60 44 16 -4 34 -12 38 -19z m-5800 -632 c81 -33 110 -74 188 -264 54
-131 56 -155 13 -172 -35 -13 -41 -12 -64 14 l-20 24 -175 -71 c-147 -60 -174
-74 -173 -91 2 -38 -1 -44 -30 -60 -27 -13 -31 -13 -50 3 -40 33 -131 281
-131 356 0 123 103 235 248 271 63 15 144 12 194 -10z m5176 -3 c7 -9 10 -27
8 -38 -5 -20 9 -28 137 -84 78 -34 157 -69 175 -78 31 -14 34 -14 48 7 8 11
21 21 29 21 27 0 63 -23 68 -42 7 -25 -46 -144 -70 -156 -17 -9 -102 -20 -213
-27 -108 -7 -216 -18 -224 -22 -17 -11 -25 21 -8 33 14 10 14 16 4 39 -18 39
-26 36 121 50 40 4 81 9 92 10 11 1 27 3 35 4 8 1 -19 16 -60 35 -41 18 -97
43 -124 56 -28 12 -63 23 -78 24 -27 2 -28 0 -26 -33 3 -31 0 -36 -17 -33 -11
2 -26 13 -33 23 -7 11 -18 17 -23 14 -15 -10 -10 20 11 70 13 30 25 45 33 42
27 -10 40 11 41 63 l1 51 30 -5 c17 -4 36 -14 43 -24z m-1706 -329 c13 -12 18
-13 18 -3 0 7 3 10 7 7 3 -4 11 -3 17 2 11 9 158 -70 199 -107 26 -23 22 -44
-7 -36 -19 4 -33 -4 -71 -40 -26 -25 -51 -46 -56 -46 -12 0 -44 33 -52 54 -4
10 -16 20 -26 23 -11 3 -22 11 -25 19 -3 8 -15 14 -26 14 -11 0 -23 7 -26 15
-4 8 -12 15 -20 15 -12 0 -34 29 -34 44 0 3 9 6 20 6 14 0 20 7 20 23 1 20 4
18 36 -16 29 -32 35 -34 29 -15 -4 12 -14 31 -23 41 -19 22 -5 22 20 0z m1635
-15 c2 -18 -1 -47 -6 -65 -7 -25 -6 -35 7 -45 9 -8 17 -9 19 -3 12 34 19 35
69 12 162 -78 198 -91 202 -79 2 8 14 25 27 39 21 25 24 26 53 14 47 -20 48
-42 6 -143 -43 -102 -66 -126 -108 -107 -27 13 -29 17 -30 58 -1 21 -15 31
-104 70 -81 35 -104 50 -109 69 -4 17 -9 20 -16 13 -17 -17 -34 -14 -134 30
-102 45 -101 44 -67 111 18 35 25 38 85 43 28 2 54 6 57 9 3 3 15 6 26 6 17 0
21 -7 23 -32z m-2511 -44 c13 -14 24 -31 24 -38 0 -6 6 -18 12 -24 10 -10 1
-24 -45 -67 -32 -30 -62 -55 -67 -55 -10 0 -70 -48 -159 -128 -59 -54 -104
-78 -122 -66 -5 3 -16 21 -25 41 -16 32 -16 37 -2 61 9 14 38 38 65 52 103 56
181 122 269 228 23 27 22 27 50 -4z m614 -68 c0 -27 15 -42 25 -26 4 6 1 18
-6 26 -6 8 -9 17 -6 20 10 11 137 -80 137 -98 0 -6 -6 -8 -13 -5 -19 7 -127
-80 -121 -97 3 -9 -6 -15 -25 -19 -17 -4 -31 -10 -31 -15 0 -21 160 -72 230
-72 20 0 53 -9 73 -19 40 -20 148 -34 260 -32 37 1 76 -3 87 -9 25 -13 38 -93
19 -116 -7 -9 -14 -23 -15 -31 -3 -17 -33 -42 -53 -43 -10 0 -12 -17 -7 -87 4
-48 9 -96 11 -108 2 -11 7 -37 10 -59 3 -21 7 -42 10 -46 3 -5 8 -37 11 -72 3
-34 10 -69 16 -75 11 -14 14 -76 4 -92 -4 -5 -14 -10 -24 -10 -9 0 -42 -2 -72
-5 -30 -3 -95 -8 -145 -11 -49 -4 -99 -9 -110 -11 -30 -6 -124 -16 -170 -19
-22 -1 -50 -5 -63 -9 -12 -4 -41 -9 -65 -11 -23 -1 -53 -5 -67 -8 -23 -6 -68
-11 -200 -23 -30 -2 -66 -7 -80 -9 -14 -3 -52 -7 -85 -11 -94 -9 -108 -12
-117 -26 -11 -18 -7 -93 9 -147 10 -35 10 -47 0 -59 -9 -12 -9 -14 0 -9 7 5
16 -1 23 -13 8 -14 8 -20 0 -20 -6 0 -8 -5 -5 -10 4 -6 10 -8 14 -5 10 6 50
-36 48 -50 -1 -5 5 -10 13 -11 32 -2 38 -5 73 -33 42 -33 99 -45 147 -31 21 6
38 6 45 0 7 -5 15 -6 19 -2 4 4 31 8 59 9 88 3 138 11 176 30 25 12 62 18 126
18 50 1 106 7 125 13 19 6 58 13 87 15 29 3 57 9 64 13 7 4 29 6 51 6 30 -2
38 2 38 15 0 13 3 14 12 5 19 -19 35 -14 42 11 5 20 13 24 47 25 22 1 44 4 49
7 19 12 81 15 100 5 19 -10 28 -40 13 -40 -5 0 -17 -21 -27 -47 -22 -54 -67
-108 -106 -128 -28 -15 -105 -35 -150 -39 -14 -2 -61 -11 -105 -20 -119 -26
-204 -41 -218 -38 -4 1 -26 -2 -50 -7 -23 -6 -65 -12 -92 -15 -103 -10 -167
-17 -188 -22 -56 -12 -292 0 -312 16 -5 4 -29 14 -52 20 -25 8 -62 32 -90 59
-82 79 -121 146 -152 263 -11 42 -26 95 -34 120 -9 24 -18 62 -21 84 -4 22 -8
51 -11 64 -3 14 -7 55 -10 92 -3 37 -9 78 -14 90 -5 13 -9 25 -9 28 0 3 -3 30
-6 60 -3 30 -8 73 -10 95 -7 66 -17 94 -37 100 -10 4 -21 18 -25 33 -3 15 -12
42 -20 60 -18 42 -18 66 1 82 18 15 84 21 107 9 11 -6 18 -4 21 6 3 7 1 16 -6
18 -22 8 14 33 103 72 155 67 300 160 300 191 0 8 -13 20 -29 25 -30 11 -56
53 -44 72 5 8 2 8 -9 0 -20 -17 -78 2 -78 26 0 23 19 41 36 34 8 -3 14 0 14 6
0 22 18 10 30 -19 15 -36 33 -40 24 -5 -7 29 -2 31 20 9 9 -8 16 -28 16 -43 0
-24 4 -28 25 -28 14 0 25 5 25 12 0 26 -13 45 -30 45 -11 0 -19 9 -22 24 -4
19 -1 22 15 18 10 -3 23 1 28 9 6 11 9 8 9 -9 0 -19 3 -21 18 -11 25 16 68 4
96 -26 13 -14 28 -25 34 -25 14 0 110 58 132 80 37 35 85 70 97 70 7 0 13 -11
13 -24z m-400 -147 c0 -6 -4 -7 -10 -4 -5 3 -10 11 -10 16 0 6 5 7 10 4 6 -3
10 -11 10 -16z m-2477 -20 c18 -6 47 -23 65 -37 41 -30 212 -257 212 -280 -1
-44 -51 -70 -87 -47 -23 15 -27 14 -79 -20 -53 -35 -56 -36 -69 -18 -13 17
-14 16 -15 -14 0 -24 -8 -37 -32 -54 -128 -90 -139 -99 -128 -120 22 -40 -18
-87 -63 -75 -24 6 -133 151 -187 248 -62 113 -42 225 58 325 l46 45 15 -31 c8
-17 20 -30 25 -28 18 6 18 33 1 50 -8 9 -15 18 -15 20 0 6 89 44 115 49 35 7
104 1 138 -13z m4593 -164 c73 -36 137 -96 168 -157 15 -29 21 -45 13 -36 -18
23 -26 14 -21 -22 4 -24 1 -29 -18 -32 -17 -2 -24 -11 -26 -30 -3 -22 2 -29
23 -34 33 -8 42 1 54 51 8 35 9 37 11 13 1 -16 3 -38 5 -50 1 -13 -4 -33 -12
-45 -7 -12 -10 -29 -7 -37 4 -9 1 -16 -6 -16 -7 0 -10 -7 -6 -16 11 -28 -58
-110 -125 -152 -28 -17 -35 -27 -32 -45 3 -14 -3 -29 -16 -41 -20 -18 -21 -18
-58 6 -21 14 -62 48 -91 75 -50 47 -52 51 -41 76 17 37 43 43 93 22 77 -33
173 39 181 136 7 85 -119 214 -228 233 -26 5 -49 1 -80 -12 -45 -21 -62 -37
-94 -94 l-21 -36 27 -26 c15 -14 31 -26 35 -26 4 0 22 16 40 35 19 19 41 35
50 35 22 0 56 -36 56 -59 0 -18 -125 -178 -163 -209 -13 -11 -21 -11 -44 0
-30 14 -43 59 -24 82 8 9 -4 25 -49 62 -33 27 -60 52 -60 56 0 20 35 106 58
142 46 73 136 153 189 170 65 20 154 13 219 -19z m-4187 -269 c107 -88 116
-100 101 -135 -15 -38 -43 -48 -77 -26 -25 17 -26 16 -37 -1 -19 -34 -15 -42
62 -106 99 -83 97 -82 126 -63 24 16 24 17 5 36 -10 10 -19 29 -19 41 0 28 28
58 53 58 22 0 152 -102 168 -133 23 -43 -39 -98 -75 -67 -11 9 -20 9 -38 -1
-26 -14 -321 -190 -327 -195 -3 -3 9 -18 26 -34 35 -35 35 -68 0 -66 -15 1
-22 -4 -21 -16 1 -11 -5 -18 -15 -18 -20 0 -126 88 -126 104 0 6 -13 16 -28
21 -16 6 -36 22 -45 37 -14 24 -14 30 3 75 l19 48 7 -51 c8 -62 14 -74 39 -74
25 0 33 42 16 83 -7 19 -12 50 -10 70 2 21 -3 40 -11 47 -11 9 -11 17 2 48 8
20 16 43 18 51 2 9 20 60 40 115 32 89 34 100 20 116 -20 23 -19 46 5 70 30
30 46 25 119 -34z m671 -472 c89 -36 244 -119 255 -137 7 -13 6 -24 -6 -45
-12 -21 -22 -27 -50 -26 l-34 1 -83 -170 -83 -170 21 -22 c11 -12 20 -28 20
-36 0 -24 -30 -59 -50 -59 -10 0 -76 29 -147 65 -153 76 -216 125 -164 125 21
0 36 29 22 43 -16 16 -45 3 -51 -23 -5 -23 -7 -22 -25 15 -15 30 -20 61 -20
125 0 76 4 92 32 151 79 160 217 222 363 163z m2963 -201 c35 -5 38 -8 32 -32
-11 -45 -47 -76 -100 -85 -15 -3 -37 -14 -49 -25 -16 -15 -25 -17 -39 -10 -16
9 -16 12 -2 32 22 31 19 53 -11 76 l-27 21 29 0 c16 0 40 7 54 14 29 16 59 18
113 9z m-940 -1267 c4 -10 1 -13 -9 -9 -7 3 -14 9 -14 14 0 14 17 10 23 -5z
m-2479 -45 c16 -18 16 -18 -9 -14 -14 3 -25 12 -25 19 0 19 14 17 34 -5z
m2492 -39 c-12 -11 -17 7 -9 34 l8 29 3 -28 c2 -16 1 -31 -2 -35z"/>
<path d="M3360 6996 c0 -9 5 -16 10 -16 6 0 10 4 10 9 0 6 -4 13 -10 16 -5 3
-10 -1 -10 -9z"/>
<path d="M3411 6991 c-22 -22 -28 -56 -12 -65 9 -6 45 73 37 81 -2 3 -14 -5
-25 -16z"/>
<path d="M3296 6905 c-3 -8 -1 -17 3 -20 5 -3 11 2 15 10 3 8 1 17 -3 20 -5 3
-11 -2 -15 -10z"/>
<path d="M3926 6350 c-16 -10 -34 -16 -40 -13 -5 4 -7 -1 -3 -10 7 -19 -17
-24 -28 -7 -7 11 -125 11 -125 0 0 -4 -17 -7 -37 -7 -52 0 -115 -8 -200 -28
-60 -14 -73 -20 -73 -36 0 -13 7 -19 23 -20 12 0 30 -2 39 -4 9 -2 34 0 55 5
82 17 103 19 103 11 0 -7 -80 -23 -184 -36 -21 -3 -42 -8 -47 -11 -12 -7 0
-55 19 -73 14 -14 31 -52 37 -84 6 -30 14 -35 52 -32 64 3 156 16 188 25 35
11 138 22 210 24 58 1 95 12 96 29 1 7 0 44 -1 82 -2 97 -17 142 -49 154 -25
9 -25 10 -4 16 13 4 20 12 16 21 -7 18 -11 17 -47 -6z"/>
<path d="M1993 6650 c-68 -41 -81 -123 -34 -206 35 -59 89 -110 146 -135 119
-53 221 64 165 189 -39 87 -147 172 -219 172 -14 0 -40 -9 -58 -20z"/>
<path d="M6803 5739 c4 -13 -2 -15 -41 -11 -88 8 -221 -59 -258 -129 -20 -39
-20 -88 -1 -125 19 -38 32 -48 79 -64 31 -12 46 -11 105 5 81 23 82 23 108 15
41 -14 75 23 55 60 -8 15 -6 21 10 30 40 21 20 143 -32 202 -16 18 -27 26 -25
17z"/>
<path d="M1143 5398 c-23 -24 -66 -128 -57 -137 7 -8 97 -41 110 -41 14 0 46
81 49 126 3 43 -11 62 -50 70 -23 4 -35 0 -52 -18z"/>
<path d="M4075 4661 c-33 -16 -69 -37 -80 -47 -11 -11 -41 -29 -67 -41 -27
-13 -48 -27 -48 -33 0 -5 -6 -10 -12 -10 -7 0 -62 -24 -123 -54 -60 -29 -120
-56 -132 -60 -14 -5 -23 -15 -23 -27 0 -11 5 -17 10 -14 6 4 24 8 41 10 30 4
75 31 99 60 17 20 26 19 26 -5 0 -12 -11 -24 -28 -31 -54 -22 -22 -33 42 -14
8 3 42 7 75 10 111 10 147 15 184 24 20 5 55 10 78 10 24 0 47 2 52 5 15 10
81 17 176 21 50 2 104 8 122 13 18 6 41 8 51 5 11 -2 23 0 26 6 4 5 13 8 20 5
8 -3 17 -1 21 5 3 6 15 11 26 11 11 0 17 4 14 10 -4 7 3 7 19 0 33 -12 85 5
68 22 -6 6 -21 12 -34 13 -31 2 -138 16 -163 20 -11 2 -49 9 -85 16 -36 6 -72
14 -80 17 -8 3 -19 4 -24 3 -5 -1 -12 2 -15 7 -3 6 -22 11 -41 13 -19 2 -46 9
-60 16 -14 7 -33 13 -44 13 -12 0 -16 5 -12 15 8 21 -10 18 -79 -14z"/>
<path d="M4693 4329 c-5 -5 -20 -11 -32 -12 -13 -1 -20 -6 -17 -14 3 -8 -2
-13 -14 -13 -11 0 -20 5 -20 10 0 6 -24 10 -60 8 -33 -1 -60 -6 -60 -10 0 -4
-17 -7 -37 -7 -60 2 -103 -3 -109 -13 -3 -4 0 -34 7 -66 18 -85 17 -100 -6
-106 -31 -8 -6 -25 40 -27 22 -1 58 1 80 4 22 3 71 9 110 12 38 3 71 8 73 10
2 2 15 0 28 -6 40 -14 101 29 84 61 -4 8 -5 28 -3 44 5 35 -14 86 -33 86 -23
0 -27 21 -5 27 11 3 18 9 15 14 -7 12 -28 11 -41 -2z"/>
<path d="M4100 4246 c0 -8 -13 -12 -37 -11 -21 0 -60 -3 -88 -7 -27 -5 -70
-10 -95 -13 -79 -9 -145 -30 -148 -48 -5 -27 55 -32 168 -13 14 2 48 7 75 11
28 4 52 9 55 10 3 2 12 0 20 -6 12 -7 9 -9 -10 -10 -33 -2 -85 -10 -170 -25
-14 -2 -50 -7 -82 -10 -79 -9 -90 -19 -55 -47 15 -13 30 -36 33 -52 5 -28 21
-48 34 -40 3 1 41 6 85 9 44 4 94 11 110 16 17 5 46 11 65 13 20 2 49 10 65
18 28 13 30 18 30 69 0 64 -20 136 -41 144 -8 3 -14 0 -14 -8z"/>
<path d="M1299 3319 c-92 -32 -135 -76 -143 -144 -6 -47 11 -125 29 -131 9 -4
337 119 354 132 8 6 -10 51 -36 91 -43 68 -111 85 -204 52z"/>
<path d="M6574 3329 c-7 -12 15 -31 28 -23 4 3 8 12 8 20 0 17 -26 19 -36 3z"/>
<path d="M6512 3025 c1 -16 9 -30 16 -33 18 -6 15 33 -4 49 -14 11 -15 9 -12
-16z"/>
<path d="M6610 2976 c0 -34 16 -40 40 -16 24 24 18 40 -16 40 -19 0 -24 -5
-24 -24z"/>
<path d="M4404 2619 c-33 -16 -72 -41 -88 -54 -15 -13 -47 -32 -72 -42 -28
-12 -42 -23 -39 -31 3 -8 0 -12 -7 -10 -7 3 -53 -16 -103 -42 -49 -25 -106
-52 -125 -60 -48 -18 -60 -29 -53 -46 4 -11 9 -12 19 -3 7 6 19 9 26 6 19 -6
86 30 98 53 14 26 30 26 30 0 0 -11 -4 -20 -8 -20 -5 0 -17 -7 -28 -15 -18
-15 -16 -15 21 -10 22 3 51 7 65 10 14 3 56 7 93 10 38 3 90 10 115 16 26 6
67 12 92 14 25 2 57 6 71 9 55 12 146 22 189 19 25 -1 61 3 80 9 19 6 45 11
58 10 13 -1 39 5 59 13 19 8 39 12 44 9 5 -3 9 0 9 6 0 6 12 10 28 9 45 -3 62
0 62 14 0 10 -27 18 -87 26 -112 16 -303 50 -323 58 -8 3 -24 7 -35 9 -42 7
-124 38 -119 45 12 20 -18 15 -72 -12z"/>
<path d="M5016 2284 c-3 -9 -15 -14 -28 -12 -13 2 -23 -2 -23 -9 0 -20 -14
-27 -21 -9 -7 19 -84 23 -84 5 0 -8 -5 -8 -15 1 -10 8 -19 9 -27 3 -12 -9 -74
-17 -127 -15 -21 0 -23 -3 -17 -36 17 -90 19 -153 6 -150 -7 2 -14 -2 -17 -8
-8 -23 42 -24 212 -5 130 16 125 15 148 6 10 -4 17 -3 17 4 0 6 9 11 20 11 23
0 22 -3 26 70 3 67 -11 110 -37 110 -23 0 -25 18 -4 26 21 9 19 24 -4 24 -10
0 -22 -7 -25 -16z"/>
<path d="M4426 2197 c-4 -15 -8 -18 -14 -10 -8 12 -22 11 -167 -13 -16 -3 -43
-7 -60 -10 -74 -11 -125 -27 -125 -39 0 -36 49 -38 205 -11 106 19 118 19 110
6 -3 -5 -21 -10 -38 -10 -18 0 -48 -4 -67 -10 -19 -5 -53 -11 -75 -14 -102
-12 -146 -19 -150 -26 -3 -4 9 -22 26 -39 17 -18 28 -39 25 -46 -13 -36 49
-41 196 -14 35 6 76 12 92 14 16 2 46 11 67 20 l38 18 -4 63 c-7 95 -45 173
-59 121z"/>
<path d="M1664 2691 c-53 -24 -118 -82 -137 -124 -20 -42 -14 -99 18 -154 14
-23 25 -54 25 -70 l0 -28 25 30 c13 17 24 35 25 41 0 7 7 15 16 18 19 7 18 8
32 -20 18 -33 49 -36 72 -7 31 40 20 62 -14 28 -8 -8 -23 -15 -34 -15 -25 0
-19 41 10 61 11 8 35 25 53 39 17 14 55 41 83 60 29 19 52 39 52 43 0 21 -66
87 -101 101 -51 21 -75 20 -125 -3z"/>
<path d="M2101 1985 c-23 -59 -40 -109 -39 -110 2 -2 39 19 83 47 44 27 87 53
95 58 12 8 10 14 -15 36 -16 15 -42 38 -56 51 l-27 25 -41 -107z"/>
<path d="M2050 1812 c0 -5 3 -12 8 -16 7 -8 8 -13 11 -41 1 -19 31 -19 56 -2
17 13 16 15 -17 40 -35 27 -58 34 -58 19z"/>
<path d="M2734 1805 c-71 -36 -133 -175 -113 -251 18 -63 114 -139 145 -113 8
6 14 15 14 19 0 6 132 286 147 313 7 12 -67 40 -117 44 -28 2 -57 -3 -76 -12z"/>
<path d="M4865 8254 c-22 -7 -41 -14 -42 -14 -4 0 29 -95 38 -106 5 -7 23 -17
39 -22 23 -9 28 -8 23 4 -7 20 40 35 101 33 71 -2 76 -1 76 16 0 12 -4 13 -19
5 -30 -15 -38 -13 -51 19 -11 27 -37 45 -101 69 -17 7 -37 6 -64 -4z"/>
<path d="M3474 8252 c-15 -10 -25 -40 -15 -46 11 -7 55 -8 126 -2 33 3 63 5
68 6 11 0 9 28 -3 35 -15 9 -164 15 -176 7z"/>
<path d="M5413 8110 c-13 -12 -20 -28 -18 -40 5 -27 39 -81 64 -104 36 -33 80
-3 68 46 -6 24 -70 109 -86 116 -4 1 -17 -7 -28 -18z"/>
<path d="M5362 7985 c-14 -30 -16 -72 -3 -79 4 -3 7 -29 5 -57 -3 -62 2 -79
26 -79 20 0 33 23 20 36 -4 5 -13 26 -18 46 -8 28 -7 41 4 55 17 23 17 63 0
86 -17 22 -21 22 -34 -8z"/>
<path d="M5667 7993 c-4 -3 -7 -19 -7 -33 0 -23 14 -38 86 -89 50 -36 83 -54
79 -44 -4 10 -12 34 -17 53 -21 73 -110 145 -141 113z"/>
<path d="M6249 1603 c-1 -5 0 -18 0 -30 1 -11 -3 -24 -8 -28 -18 -10 -13 -36
7 -33 11 2 17 -3 16 -14 -2 -19 13 -23 33 -10 7 4 19 24 28 45 l15 37 -32 20
c-34 21 -57 26 -59 13z"/>
<path d="M5980 1440 c0 -5 -7 -7 -15 -4 -8 4 -15 1 -15 -5 0 -7 -8 -11 -17 -9
-12 2 -18 -3 -17 -15 2 -13 -4 -17 -19 -15 -15 2 -23 -5 -31 -27 -6 -16 -17
-40 -24 -53 -12 -21 -14 -21 -43 -6 -17 8 -33 13 -37 10 -3 -3 -2 -6 2 -6 4 0
2 -9 -4 -20 -6 -11 -7 -20 -3 -21 30 -3 50 -10 75 -29 16 -12 36 -19 44 -16 8
3 19 -5 28 -23 18 -35 42 -55 55 -46 7 4 3 17 -11 35 -21 29 -21 30 -3 50 12
14 16 28 12 49 -6 30 -6 30 26 24 36 -7 59 -21 52 -33 -6 -9 33 -25 41 -17 3
2 -3 26 -11 52 -9 26 -14 59 -10 72 4 18 0 31 -14 44 -21 20 -61 26 -61 9z"/>
<path d="M6108 1349 c-25 -14 -22 -27 13 -79 18 -27 38 -45 50 -45 10 0 19 -4
19 -10 0 -5 -8 -10 -18 -10 -13 0 -16 -7 -14 -30 10 -110 12 -119 44 -152 18
-18 36 -33 42 -33 6 0 5 5 -2 12 -7 7 -12 20 -12 30 0 19 33 58 50 58 17 0 11
-37 -7 -44 -25 -10 -1 -28 33 -24 52 6 63 74 17 101 -12 7 -11 12 7 29 19 18
20 21 6 37 -9 10 -16 23 -16 29 0 6 -9 9 -20 7 -13 -2 -33 7 -53 25 -31 27
-31 29 -14 48 10 11 15 22 10 25 -6 4 -115 38 -117 37 -1 0 -9 -5 -18 -11z"/>
<path d="M5735 1132 c-33 -7 -38 -19 -20 -50 22 -36 14 -72 -11 -52 -8 7 -13
19 -10 26 6 16 -10 29 -18 15 -4 -5 -27 -19 -52 -32 -51 -24 -69 -15 -59 29 7
27 -5 28 -36 3 l-24 -20 27 -25 c15 -14 31 -33 36 -42 11 -19 36 -9 28 11 -3
9 7 14 30 17 66 8 125 -52 118 -120 -1 -15 -2 -33 -3 -39 -1 -7 -10 -13 -21
-13 -11 0 -20 -7 -20 -15 0 -24 57 -19 70 5 6 11 21 20 35 20 26 0 46 -21 27
-28 -16 -5 -15 -27 2 -41 11 -9 23 -2 61 36 57 59 83 109 66 126 -10 9 -14 8
-22 -6 -12 -21 -29 -13 -29 14 0 12 -7 19 -20 19 -35 0 -22 19 23 31 30 9 36
14 22 17 -11 2 -25 10 -32 19 -9 11 -16 12 -32 3 -28 -14 -41 -5 -41 29 0 16
-6 33 -12 38 -24 17 -63 29 -83 25z"/>
<path d="M5297 854 c-4 -4 -7 -25 -7 -46 0 -40 2 -41 58 -38 28 1 32 -1 32
-24 0 -34 18 -33 31 1 5 15 19 33 29 40 24 17 26 51 3 60 -9 3 -38 2 -64 -4
-38 -7 -51 -6 -62 4 -7 7 -16 10 -20 7z"/>
<path d="M5200 646 c-8 -22 -4 -66 8 -78 4 -4 8 2 9 14 1 12 9 28 18 37 14 14
17 14 25 1 9 -13 11 -13 19 0 13 20 -3 37 -40 42 -24 4 -32 0 -39 -16z"/>
<path d="M5262 562 c-23 -23 -24 -30 -22 -129 1 -61 1 -62 -27 -69 -63 -14
-61 -12 -59 -64 1 -44 4 -50 23 -50 21 0 187 82 211 104 14 14 21 44 24 103 2
52 -15 75 -46 63 -13 -4 -29 -4 -39 2 -9 5 -22 6 -29 2 -7 -5 -9 -2 -6 7 3 8
2 23 -2 33 -6 19 -7 19 -28 -2z"/>
</g>
</svg>
